<?xml version="1.0" encoding="UTF-8" standalone="no"?>
<svg
   width="1752.1689"
   height="1300"
   version="1.1"
   id="svg1510"
   xmlns="http://www.w3.org/2000/svg"
   xmlns:svg="http://www.w3.org/2000/svg">
  <defs
     id="defs1510" />
  <g
     class="currentLayer"
     id="g1510"
     transform="scale(1.0012392,1)">
    <title
       id="title1510">Layer 1</title>
    <path
       fill-rule="nonzero"
       fill="#932121"
       fill-opacity="1"
       d="m 1270.6273,642.00062 h -101.5 c -13.75,0 -23.9922,-11.6289 -23.332,-24.41015 0.1211,-2.3086 0.5898,-4.66016 1.4726,-6.98047 0.098,-0.25 0.1875,-0.5 0.2891,-0.75 1.5899,-4.10938 2.4688,-8.56641 2.4688,-13.23828 0,-1.39063 -0.09,-2.76954 -0.2383,-4.12891 -2.1524,-19.10938 -19,-33.78125 -38.9805,-32.41016 -18.1211,1.25 -32.7812,15.96094 -33.9609,34.07813 -0.051,0.67187 -0.07,1.33203 -0.078,1.99219 -0.062,4.9375 0.8477,9.66015 2.5704,13.98046 0.039,0.0977 0.078,0.19922 0.1171,0.29688 0.6524,1.66016 1.0821,3.33984 1.3399,5 2.0625,13.57031 -8.5977,26.57031 -23.1289,26.57031 H 955.92833 v 101.75001 c 0,16.3008 16.3867,27.75 31.5703,21.7812 0.098,-0.039 0.1992,-0.078 0.2969,-0.1211 4.9023,-1.9375 10.3125,-2.8593 15.97257,-2.4882 17.5704,1.1484 31.9375,14.9609 33.9297,32.3203 0.059,0.539 0.1094,1.0898 0.1485,1.6406 1.4687,21.3984 -15.461,39.2188 -36.5391,39.2188 -4.67187,0 -9.12887,-0.879 -13.23047,-2.4688 -0.25,-0.1016 -0.5,-0.1914 -0.75,-0.293 -15.1796,-5.7304 -31.3984,5.6328 -31.3984,21.8633 v 101.7266 H 1270.858 V 642.00062 h -0.2305"
       class=""
       id="svg_41" />
    <path
       fill-rule="nonzero"
       fill="#932121"
       fill-opacity="1"
       d="m 1170.0601,640.87898 h 101.7305 V 325.94929 h -101.7305 c -12.9024,0 -22.7188,10.25 -23.3203,22.07813 -0.1602,3.05078 0.2812,6.21094 1.4609,9.32031 0.098,0.25 0.1875,0.5 0.2891,0.75 1.1211,2.87891 1.8711,5.94141 2.2304,9.12109 0.1485,1.34766 0.2383,2.71875 0.2383,4.10938 0,21.08984 -17.8203,38.01953 -39.2304,36.53906 -18.1094,-1.23828 -32.7696,-15.96094 -33.9493,-34.07812 -0.07,-0.94141 -0.078,-1.8711 -0.07,-2.80078 0.039,-4.64063 0.9414,-9.08204 2.5625,-13.16016 0.039,-0.10156 0.078,-0.19922 0.1172,-0.30859 1.543,-3.92188 1.9102,-7.92969 1.3399,-11.71094 -1.629,-10.83985 -11.0391,-19.85938 -23.129,-19.85938 H 956.86115 v 101.73828 c 0,16.23047 -16.2227,27.58985 -31.4024,21.85157 -0.25,-0.0899 -0.5,-0.19141 -0.75,-0.28125 -4.0976,-1.60157 -8.5586,-2.46875 -13.2304,-2.46875 -20.1172,0 -36.4297,16.21875 -36.6094,36.30078 -0.01,0.95703 0,1.92969 0.07,2.90625 1.2422,18.12109 15.9609,32.78125 34.082,33.97265 5.668,0.3711 11.0781,-0.55078 15.9688,-2.49218 0.1015,-0.0391 0.1992,-0.0781 0.3008,-0.11719 14.1484,-5.57031 29.3476,4.00781 31.3398,18.53906 0.1484,1.0586 0.2305,2.14063 0.2305,3.23828 v 101.74219 h 101.73825 c 14.5313,0 25.1915,-13 23.129,-26.57031 -0.2579,-1.66016 -0.6875,-3.33985 -1.3399,-4.99219 -0.039,-0.10937 -0.078,-0.20703 -0.1172,-0.30859 -1.7226,-4.3086 -2.6328,-9.03907 -2.5703,-13.98047 0.01,-0.66016 0.027,-1.32031 0.078,-1.98828 1.1797,-18.1211 15.8399,-32.83203 33.961,-34.07032 19.9804,-1.37109 36.8281,13.28907 38.9804,32.39844 0.1485,1.35938 0.2383,2.74219 0.2383,4.14063 0,4.66015 -0.8789,9.1289 -2.4687,13.23047 -0.1016,0.25 -0.1914,0.5 -0.2891,0.75 -0.8828,2.32031 -1.3516,4.66796 -1.4726,6.98828 -0.6602,12.78125 9.582,24.40234 23.332,24.40234"
       id="svg_69"
       class="" />
    <path
       fill-rule="nonzero"
       fill="#932121"
       fill-opacity="1"
       d="m 413.88298,796.80509 c -0.0351,-0.5508 -0.0859,-1.1016 -0.15234,-1.6407 -1.98828,-17.3515 -16.35547,-31.17183 -33.92578,-32.32027 -5.66406,-0.37109 -11.07422,0.55078 -15.96484,2.48828 -0.10547,0.043 -0.20704,0.082 -0.30469,0.1211 -15.17969,5.96879 -31.57031,-5.48047 -31.57031,-21.78125 v -101.75 H 230.22283 c -12.88281,0 -22.72266,10.23046 -23.34766,22.01953 -0.16797,3.13281 0.3086,6.36328 1.5625,9.55078 0.0391,0.10156 0.0781,0.19922 0.11719,0.30078 1.17969,2.96875 1.97656,6.14062 2.34375,9.42969 0.23437,2.1289 0.29687,4.30859 0.15234,6.53906 -1.1875,18.12109 -15.84765,32.83984 -33.96484,34.08203 -21.40234,1.46875 -39.21484,-15.44922 -39.21484,-36.53906 0,-0.14063 0.008,-0.28125 0.0117,-0.42969 0.0508,-4.51172 0.91016,-8.82031 2.45313,-12.80078 0.0977,-0.25 0.19531,-0.5 0.28906,-0.75 1.46485,-3.88281 1.8086,-7.82031 1.2461,-11.55078 -1.64062,-10.85938 -11.01953,-19.85156 -23.10156,-19.85156 H 17.035316 V 956.85189 H 331.96502 v -101.7265 c 0,-16.2305 16.21484,-27.5938 31.39843,-21.8633 0.25,0.1016 0.4961,0.1914 0.7461,0.293 4.10547,1.5898 8.5664,2.4687 13.23437,2.4687 21.08203,0 38.00781,-17.8203 36.53906,-39.2187"
       id="svg_87"
       class="" />
    <path
       fill-rule="nonzero"
       fill="#932121"
       fill-opacity="1"
       d="M 118.84761,327.15157 H 17.11325 v 314.92969 h 101.73436 c 12.08204,0 21.46094,9 23.10157,19.84765 0.5625,3.73047 0.21875,7.67188 -1.2461,11.55078 -0.0937,0.25 -0.1914,0.5 -0.28515,0.75 -1.54688,3.98047 -2.40625,8.28907 -2.46094,12.8125 0,0.13672 -0.008,0.27735 -0.008,0.41797 0,21.08985 17.82031,38.01953 39.22265,36.53907 18.11719,-1.23829 32.77344,-15.95704 33.95703,-34.07813 0.14454,-2.23047 0.0859,-4.41016 -0.15234,-6.53906 -0.36719,-3.29297 -1.16406,-6.45313 -2.34375,-9.42188 -0.0391,-0.10156 -0.0781,-0.21093 -0.11719,-0.30859 -1.2539,-3.17969 -1.73047,-6.42188 -1.5625,-9.55078 0.625,-11.78125 10.46485,-22.01953 23.34766,-22.01953 H 332.04293 V 540.33907 c 0,-16.29688 16.39062,-27.75 31.5664,-21.77734 0.10547,0.0391 0.20313,0.0781 0.3086,0.11718 4.89062,1.94141 10.30078,2.86328 15.96484,2.49219 18.125,-1.19141 32.83594,-15.85156 34.07813,-33.97266 0.15625,-2.25 0.0937,-4.45703 -0.14063,-6.60937 -2.01172,-18.32813 -17.53125,-32.59766 -36.39844,-32.59766 -4.66797,0 -9.1289,0.86719 -13.23437,2.46875 -0.25,0.0899 -0.4961,0.19141 -0.7461,0.28125 -15.18359,5.73828 -31.39843,-5.62109 -31.39843,-21.85156 V 327.15157 H 230.30074 c -13.75391,0 -24.04688,-11.65234 -23.35547,-24.41016 0.12891,-2.37109 0.63281,-4.78125 1.57031,-7.15234 0.0391,-0.0977 0.0781,-0.20703 0.11719,-0.30859 1.94531,-4.89063 2.86719,-10.30079 2.49609,-15.96094 -0.0391,-0.58985 -0.0937,-1.17969 -0.16015,-1.75781 -1.98438,-17.3125 -16.26953,-31.1211 -33.79688,-32.32032 -21.25,-1.46093 -38.95703,15.20703 -39.21093,36.08985 -0.004,0.14843 -0.0117,0.30078 -0.0117,0.44922 0,4.66015 0.875,9.1289 2.46875,13.23046 0.0937,0.25 0.1914,0.5 0.28515,0.75 0.59766,1.57813 1,3.17969 1.23828,4.75782 2.0625,13.63281 -8.55859,26.63281 -23.09375,26.63281"
       id="svg_98"
       class="" />
    <path
       fill-rule="nonzero"
       fill="#932121"
       fill-opacity="1"
       d="m 1043.4261,795.82548 c -2.0117,-18.3281 -17.5312,-32.5898 -36.4023,-32.5898 -4.668,0 -9.12894,0.8711 -13.23054,2.4609 -0.25,0.1016 -0.5,0.1992 -0.75,0.2891 -15.1797,5.7421 -31.3984,-5.6289 -31.3984,-21.8477 V 642.3958 h -101.7383 c -12.8828,0 -22.7227,10.23047 -23.3516,22.01953 -0.1601,3.13281 0.3086,6.36328 1.5586,9.55078 0.043,0.10156 0.082,0.19922 0.1211,0.30078 1.1797,2.96875 1.9805,6.12891 2.3516,9.42969 0.2304,2.1289 0.289,4.30859 0.1484,6.53906 -1.1797,18.12109 -15.8398,32.83203 -33.9609,34.08203 -21.3985,1.48047 -39.2188,-15.44922 -39.2188,-36.53906 0,-0.14063 0.012,-0.28125 0.012,-0.42969 0.047,-4.51172 0.9102,-8.82031 2.4571,-12.80078 0.09,-0.25 0.1914,-0.5 0.2812,-0.75 1.4688,-3.88281 1.8086,-7.82031 1.25,-11.55078 -1.6406,-10.85938 -11.0195,-19.85156 -23.10155,-19.85156 H 646.71512 v 101.74218 c 0,16.2188 16.21875,27.5898 31.39844,21.8477 0.25,-0.09 0.5,-0.1875 0.75,-0.2891 4.10156,-1.5898 8.5625,-2.4609 13.23047,-2.4609 18.87109,0 34.39063,14.2617 36.40234,32.5898 0.23829,2.1602 0.29688,4.3711 0.14063,6.6211 -1.24219,18.1211 -15.95313,32.7812 -34.08203,33.9687 -5.66016,0.3711 -11.07031,-0.5468 -15.96094,-2.5 -0.10937,-0.039 -0.20703,-0.078 -0.30859,-0.1171 -15.17188,-5.961 -31.57032,5.4804 -31.57032,21.789 v 101.7383 h 314.92974 v -101.7383 c 0,-16.3086 16.3906,-27.75 31.5703,-21.789 0.1015,0.039 0.2109,0.078 0.3086,0.1171 4.89064,1.9532 10.29294,2.8711 15.96094,2.5 18.1211,-1.1875 32.832,-15.8398 34.082,-33.957 0.1602,-2.2617 0.098,-4.4726 -0.1406,-6.6328"
       id="svg_118"
       class="" />
    <path
       fill-rule="nonzero"
       fill="#932121"
       fill-opacity="1"
       d="m 857.99234,640.22941 h 101.7383 V 538.48722 c 0,-1.09766 -0.078,-2.17969 -0.2187,-3.23828 -2,-14.53125 -17.1993,-24.10938 -31.3399,-18.53907 -0.1094,0.0391 -0.2109,0.0781 -0.3125,0.11719 -4.8867,1.94141 -10.2969,2.86328 -15.9687,2.49219 -18.1211,-1.19141 -32.8282,-15.85156 -34.0782,-33.97266 -0.062,-0.97656 -0.082,-1.94922 -0.07,-2.90625 0.1797,-20.08203 16.5,-36.30078 36.6172,-36.30078 4.6602,0 9.1211,0.86719 13.2305,2.46875 0.25,0.0899 0.5,0.19141 0.75,0.28125 15.1797,5.73828 31.3906,-5.62109 31.3906,-21.85156 V 325.29972 h -101.7383 c -13.75,0 -24.0508,-11.65235 -23.3633,-24.41016 0.1329,-2.37109 0.6407,-4.78125 1.5704,-7.15234 0.043,-0.0977 0.082,-0.20703 0.121,-0.3086 1.9493,-4.89062 2.8711,-10.30078 2.5,-15.96093 -0.039,-0.58985 -0.098,-1.17969 -0.1601,-1.75782 -1.9883,-17.3125 -16.2695,-31.12109 -33.8008,-32.32031 -21.25,-1.46094 -38.957,15.20703 -39.207,36.08985 0,0.14843 -0.012,0.30078 -0.012,0.44921 0,4.66016 0.8711,9.12891 2.4687,13.23047 0.09,0.25 0.1914,0.5 0.2813,0.75 0.6015,1.57813 1,3.17969 1.2382,4.75782 2.0625,13.63281 -8.5586,26.63281 -23.08981,26.63281 H 644.80095 V 427.038 c 0,16.23047 16.21875,27.58984 31.39844,21.85156 0.25,-0.0898 0.5,-0.1914 0.75,-0.28125 4.10156,-1.60156 8.5625,-2.46875 13.23047,-2.46875 18.87109,0 34.39062,14.26953 36.40234,32.59766 0.23828,2.15234 0.29688,4.35937 0.14063,6.60937 -1.24219,18.1211 -15.96094,32.78125 -34.08203,33.97266 -5.66016,0.37109 -11.07032,-0.55078 -15.96094,-2.49219 -0.10938,-0.0391 -0.20703,-0.0781 -0.3086,-0.11719 -15.17968,-5.97265 -31.57031,5.48047 -31.57031,21.77735 v 101.74219 h 101.73828 c 12.08201,0 21.46091,9 23.10161,19.84765 0.5586,3.73047 0.2187,7.67188 -1.25,11.55078 -0.09,0.25 -0.1914,0.5 -0.2813,0.75 -1.5469,3.98047 -2.4101,8.28907 -2.457,12.8125 0,0.13672 -0.012,0.27735 -0.012,0.41797 0,21.08985 17.8203,38.01953 39.2187,36.53906 18.1211,-1.23828 32.7695,-15.95703 33.9609,-34.07812 0.1407,-2.23047 0.082,-4.41016 -0.1484,-6.53906 -0.3711,-3.29297 -1.1719,-6.45313 -2.3516,-9.42188 -0.039,-0.10156 -0.078,-0.21094 -0.121,-0.30859 -1.25,-3.17969 -1.7188,-6.42188 -1.5586,-9.55078 0.6289,-11.78125 10.4687,-22.01953 23.3515,-22.01953"
       id="svg_130"
       class="" />
    <path
       fill-rule="nonzero"
       fill="#932121"
       fill-opacity="1"
       d="m 728.90981,795.74371 c -2.00781,-18.3281 -17.53125,-32.5898 -36.39843,-32.5898 -4.66407,0 -9.125,0.8711 -13.23047,2.4609 -0.2461,0.1016 -0.4961,0.1993 -0.7461,0.2891 -15.18359,5.7422 -31.39843,-5.6289 -31.39843,-21.84765 V 642.31407 H 545.39419 c -13.75391,0 -24.04688,-11.66015 -23.35547,-24.41015 0.125,-2.36719 0.63281,-4.77735 1.57031,-7.16016 0.0391,-0.0977 0.0781,-0.19922 0.11719,-0.29688 1.94531,-4.89062 2.86719,-10.30078 2.49609,-15.97265 -0.0391,-0.58985 -0.0937,-1.16797 -0.16015,-1.75 -1.98828,-17.3086 -16.27735,-31.11719 -33.80469,-32.32813 -21.24609,-1.44922 -38.95313,15.21875 -39.20313,36.08985 -0.004,0.14843 -0.0117,0.30078 -0.0117,0.44922 0,4.67187 0.875,9.1289 2.46484,13.23828 0.0977,0.25 0.19531,0.5 0.28906,0.75 0.59766,1.58203 1,3.17187 1.23828,4.76172 2.0625,13.62109 -8.55859,26.6289 -23.09375,26.6289 H 332.20669 v 101.74219 c 0,16.21875 16.21484,27.58985 31.39844,21.84765 0.25,-0.09 0.49609,-0.1875 0.74609,-0.2891 4.10547,-1.5898 8.56641,-2.4609 13.23437,-2.4609 18.86329,0 34.38672,14.2617 36.39844,32.5898 0.23438,2.1602 0.29688,4.3711 0.14063,6.6329 -1.2461,18.1171 -15.96094,32.7695 -34.08594,33.957 -5.66016,0.3711 -11.07031,-0.5469 -15.96094,-2.5 -0.0976,-0.039 -0.20312,-0.078 -0.30469,-0.1172 -15.17578,-5.9609 -31.5664,5.4805 -31.5664,21.7891 v 101.7382 h 314.92969 v -101.7382 c 0,-16.3086 16.39062,-27.75 31.5664,-21.7891 0.10156,0.039 0.20313,0.078 0.30469,0.1172 4.89453,1.9531 10.30469,2.8711 15.97266,2.5 18.12109,-1.1875 32.83203,-15.8477 34.08203,-33.9688 0.14843,-2.25 0.0898,-4.4609 -0.15235,-6.6211"
       id="svg_150"
       class="" />
    <path
       fill-rule="nonzero"
       fill="#932121"
       fill-opacity="1"
       d="M 545.14229,642.08651 H 646.88448 V 540.34433 c 0,-16.29688 16.39063,-27.75 31.56641,-21.77735 0.10156,0.0391 0.20312,0.0781 0.30469,0.11719 4.89453,1.94141 10.30468,2.86328 15.96093,2.49219 18.13282,-1.19141 32.84375,-15.85157 34.09375,-33.97266 0.14844,-2.25 0.0898,-4.45703 -0.15234,-6.60937 -2.00781,-18.32813 -17.53125,-32.59766 -36.39844,-32.59766 -4.66406,0 -9.125,0.86719 -13.23047,2.46875 -0.25,0.0898 -0.5,0.19141 -0.74609,0.28125 -15.18359,5.73828 -31.39844,-5.62109 -31.39844,-21.85156 V 327.15683 H 545.14229 c -12.88671,0 -22.72656,10.23828 -23.35156,22.01953 -0.16406,3.1289 0.3125,6.37109 1.56641,9.55078 0.0391,0.10937 0.0781,0.20703 0.11719,0.30859 1.17968,2.96875 1.97656,6.12891 2.34375,9.41797 0.23437,2.13281 0.29687,4.3125 0.15234,6.54297 -1.18359,18.11719 -15.83984,32.83984 -33.96094,34.07812 -21.39844,1.48047 -39.21875,-15.44921 -39.21875,-36.53906 0,-0.14062 0.008,-0.28125 0.008,-0.42187 0.0547,-4.51953 0.91407,-8.82813 2.45704,-12.8086 0.0976,-0.25 0.19531,-0.5 0.28906,-0.75 1.46484,-3.8789 1.80859,-7.82031 1.24609,-11.55078 -1.64062,-10.84765 -11.01953,-19.84765 -23.10156,-19.84765 H 331.95479 v 101.73828 c 0,16.23047 16.21485,27.58984 31.39844,21.85156 0.25,-0.0898 0.4961,-0.19141 0.7461,-0.28125 4.10546,-1.60156 8.5664,-2.46875 13.23437,-2.46875 18.86328,0 34.38672,14.26953 36.39844,32.59766 0.23437,2.15234 0.29687,4.35937 0.14062,6.60937 -1.24218,18.12109 -15.95703,32.78125 -34.07812,33.97266 -5.66406,0.37109 -11.07422,-0.55078 -15.96875,-2.49219 -0.10156,-0.0391 -0.20313,-0.0781 -0.30469,-0.11719 -15.17578,-5.97265 -31.56641,5.48047 -31.56641,21.77735 v 101.74218 h 101.73438 c 14.53516,0 25.15625,-13 23.09375,-26.63281 -0.23828,-1.57812 -0.64063,-3.17969 -1.23828,-4.75781 -0.0937,-0.25 -0.19141,-0.5 -0.28906,-0.75 -1.59375,-4.10156 -2.46485,-8.57031 -2.46485,-13.23047 0,-0.14844 0.008,-0.30078 0.0117,-0.44922 0.25,-20.87891 17.96094,-37.5625 39.20703,-36.08984 17.52735,1.19922 31.81641,15.00781 33.80078,32.32031 0.0664,0.57812 0.1211,1.16797 0.16016,1.75781 0.36719,5.66016 -0.55078,11.07031 -2.49609,15.96094 -0.0391,0.10156 -0.0781,0.19922 -0.11719,0.30859 -0.9375,2.3711 -1.44531,4.78125 -1.57031,7.15235 -0.69141,12.75781 9.60156,24.41015 23.35546,24.41015"
       id="svg_162"
       class="" />
    <path
       fill-rule="nonzero"
       fill="#932121"
       fill-opacity="1"
       d="m 959.21375,112.23947 v 1.31641 c 0,16.23047 16.2187,27.59375 31.3984,21.86328 0.25,-0.10156 0.5,-0.1914 0.75,-0.29297 4.1016,-1.58984 8.5586,-2.46875 13.23055,-2.46875 18.8594,0 34.3906,14.26953 36.3984,32.60157 0.2305,2.16015 0.293,4.35937 0.1407,6.61718 -1.2383,18.1211 -15.961,32.77344 -34.0782,33.96094 -5.6601,0.37109 -11.07035,-0.55078 -15.97265,-2.48828 -0.098,-0.043 -0.1992,-0.082 -0.2969,-0.12109 -15.1836,-5.96875 -31.5703,5.48046 -31.5703,21.78125 v 101.75 h 101.73835 c 12.0898,0 21.5,9.00781 23.1289,19.84765 0.5703,3.78125 0.2031,7.79297 -1.3399,11.72266 -0.039,0.0977 -0.078,0.19922 -0.1171,0.29687 -1.6211,4.08203 -2.5235,8.52344 -2.5625,13.17188 -0.01,0.91797 0,1.85937 0.07,2.80078 1.1797,18.11719 15.8398,32.82812 33.9609,34.07812 21.3984,1.46094 39.2188,-15.46093 39.2188,-36.53906 0,-1.39844 -0.09,-2.76172 -0.2383,-4.10937 -0.3594,-3.19141 -1.1094,-6.25 -2.2305,-9.12891 -0.1016,-0.25 -0.1914,-0.5 -0.2891,-0.75 -1.1718,-3.11328 -1.6211,-6.27344 -1.4609,-9.32031 0.6016,-11.83203 10.418,-22.07031 23.3203,-22.07031 h 101.7308 V 11.829322 H 959.21375 V 112.23947"
       id="svg_58"
       class="" />
    <path
       fill-rule="nonzero"
       fill="#932121"
       fill-opacity="1"
       d="m 644.18583,112.45706 c 0,16.23047 -16.21094,27.59375 -31.39063,21.86328 -0.25,-0.10156 -0.5,-0.1914 -0.75,-0.29297 -4.10937,-1.58984 -8.57031,-2.46875 -13.23437,-2.46875 -20.11719,0 -36.4336,16.23047 -36.61328,36.30079 -0.008,0.96875 0.008,1.9414 0.0742,2.91796 1.24218,18.11329 15.95312,32.77344 34.07812,33.96094 5.66406,0.3711 11.07422,-0.55078 15.96484,-2.48828 0.10157,-0.043 0.19922,-0.082 0.3125,-0.12109 14.13672,-5.5586 29.33985,4.01172 31.33985,18.55078 0.14062,1.05078 0.21875,2.1289 0.21875,3.23047 v 101.75 h 101.7383 c 14.5312,0 25.1523,-13.01172 23.0898,-26.63282 -0.2382,-1.58984 -0.6367,-3.1875 -1.2382,-4.76953 -0.09,-0.25 -0.1914,-0.5 -0.2813,-0.75 -1.5976,-4.09765 -2.4687,-8.55859 -2.4687,-13.23047 0,-0.14843 0.012,-0.29687 0.012,-0.44921 0.25,-20.87891 17.957,-37.5586 39.207,-36.08985 17.5313,1.21094 31.8125,15.01953 33.8008,32.32031 0.062,0.58204 0.1211,1.17188 0.1601,1.76172 0.3711,5.66797 -0.5507,11.07032 -2.5,15.96875 -0.039,0.10157 -0.078,0.19922 -0.121,0.30078 -0.9297,2.37891 -1.4375,4.77735 -1.5704,7.14844 -0.6875,12.76172 9.6133,24.42188 23.3633,24.42188 h 101.7383 v -101.75 c 0,-16.30078 16.3906,-27.75 31.5703,-21.78125 0.1016,0.0391 0.211,0.0781 0.3086,0.12109 4.8906,1.9375 10.29299,2.85938 15.96089,2.48828 18.1211,-1.17969 32.8321,-15.83984 34.0821,-33.94922 0.1601,-2.26172 0.098,-4.46875 -0.1406,-6.6289 -2.0118,-18.33203 -17.5313,-32.60157 -36.4024,-32.60157 -4.66799,0 -9.12889,0.87891 -13.23049,2.46875 -0.25,0.10157 -0.5,0.19141 -0.75,0.29297 -15.1796,5.73047 -31.3984,-5.63281 -31.3984,-21.86328 V 10.7305 H 644.18583 v 101.72656"
       id="svg_108"
       class="" />
    <path
       fill-rule="nonzero"
       fill="#932121"
       fill-opacity="1"
       d="m 331.4044,112.40299 v 1.31641 c 0,16.23047 16.21485,27.59375 31.39844,21.86328 0.25,-0.10156 0.5,-0.19141 0.74609,-0.29297 4.10547,-1.58984 8.56641,-2.46875 13.23438,-2.46875 18.86328,0 34.38672,14.26953 36.39844,32.60156 0.23437,2.16016 0.29687,4.36719 0.14062,6.62891 -1.24609,18.10937 -15.96094,32.76953 -34.08203,33.94922 -5.66406,0.37109 -11.07422,-0.55078 -15.96484,-2.48828 -0.0977,-0.043 -0.20313,-0.082 -0.30469,-0.1211 -15.17578,-5.96875 -31.56641,5.48047 -31.56641,21.78125 v 101.75 h 101.73438 c 12.08203,0 21.46093,8.98828 23.10156,19.84766 0.5625,3.72265 0.21875,7.67187 -1.24609,11.54297 -0.0937,0.25 -0.19141,0.5 -0.28907,0.75 -1.54297,3.97656 -2.40234,8.29687 -2.45703,12.80859 0,0.14063 -0.008,0.28125 -0.008,0.42969 0,21.07812 17.8125,38 39.21094,36.53906 18.12109,-1.25 32.78125,-15.96094 33.96484,-34.07812 0.14844,-2.23047 0.0859,-4.41016 -0.14844,-6.55079 -0.36718,-3.28906 -1.16406,-6.44921 -2.34375,-9.42187 -0.0391,-0.0977 -0.0781,-0.19922 -0.11718,-0.30859 -1.25391,-3.17969 -1.73047,-6.41797 -1.56641,-9.55079 0.625,-11.77734 10.46484,-22.00781 23.35156,-22.00781 H 646.3339 v -101.75 c 0,-1.10156 -0.082,-2.17969 -0.22656,-3.23047 -1.99219,-14.53906 -17.19141,-24.10937 -31.33985,-18.55078 -0.10156,0.0391 -0.20312,0.0781 -0.30468,0.1211 -4.89454,1.9375 -10.30469,2.85937 -15.96875,2.48828 -18.125,-1.1875 -32.83594,-15.84766 -34.07813,-33.96094 -0.0664,-0.97656 -0.0859,-1.94922 -0.0742,-2.91797 0.17969,-20.07031 16.4961,-36.30078 36.61328,-36.30078 4.66797,0 9.12891,0.87891 13.23438,2.46875 0.25,0.10156 0.5,0.19141 0.74609,0.29297 15.1836,5.73047 31.39844,-5.63281 31.39844,-21.86328 V 11.992836 H 331.4044 V 112.40299"
       id="svg_140"
       class="" />
    <path
       fill-rule="nonzero"
       fill="#1a1aeb"
       fill-opacity="1"
       d="m 16.647627,323.34843 v 4.5625 H 118.382 c 14.53516,0 25.15625,-13.01172 23.09375,-26.63282 -0.23828,-1.58984 -0.64062,-3.1875 -1.23828,-4.76953 -0.0937,-0.25 -0.1914,-0.5 -0.28515,-0.75 -1.59375,-4.09765 -2.46875,-8.55859 -2.46875,-13.23047 0,-0.14843 0.0117,-0.29687 0.0117,-0.44921 0.25391,-20.8711 17.95704,-37.55079 39.20313,-36.08985 17.52734,1.19922 31.81641,15.01172 33.80469,32.32031 0.0664,0.58204 0.12109,1.17188 0.16015,1.76172 0.3711,5.66016 -0.55078,11.07032 -2.49609,15.96875 -0.0391,0.10157 -0.0781,0.19922 -0.11719,0.30078 -0.9375,2.37891 -1.4414,4.77735 -1.57031,7.14844 -0.69141,12.76172 9.60156,24.42188 23.35547,24.42188 h 101.74219 v -101.75 c 0,-16.30078 16.39062,-27.75 31.57031,-21.78125 0.0976,0.0391 0.19922,0.0781 0.30469,0.12109 4.89062,1.9375 10.30078,2.85938 15.96484,2.48828 18.125,-1.1875 32.83594,-15.84765 34.07812,-33.96094 0.15625,-2.25781 0.0937,-4.45703 -0.14062,-6.61718 -2.01172,-18.33203 -17.53125,-32.60157 -36.39844,-32.60157 -4.66797,0 -9.1289,0.87891 -13.23437,2.46875 -0.25,0.10157 -0.4961,0.19141 -0.7461,0.29297 -15.18359,5.73047 -31.39843,-5.63281 -31.39843,-21.86328 V 12.981239 H 16.647627 V 323.34843"
       id="svg_78"
       class="" />
  </g>
</svg>
